<?xml version="1.0" encoding="utf-8"?>
<!-- Generator: Adobe Illustrator 26.0.1, SVG Export Plug-In . SVG Version: 6.00 Build 0)  -->
<svg version="1.1" id="Camada_1" xmlns="http://www.w3.org/2000/svg" xmlns:xlink="http://www.w3.org/1999/xlink" x="0px" y="0px"
	 viewBox="0 0 240 100" style="enable-background:new 0 0 240 100;" xml:space="preserve">
<style type="text/css">
	.st0{fill:#FFFFFF;}
	.st1{opacity:0.4;fill:url(#SVGID_1_);enable-background:new    ;}
	.st2{opacity:0.4;fill:url(#SVGID_00000007424142267668351630000016619611435249402550_);enable-background:new    ;}
	.st3{opacity:0.4;fill:url(#SVGID_00000041298003554721520020000016205638866615038634_);enable-background:new    ;}
	.st4{opacity:0.4;fill:url(#SVGID_00000170992855079015816280000010619537897814174639_);enable-background:new    ;}
	.st5{opacity:0.4;fill:url(#SVGID_00000109745009622828112590000010052854474979232445_);enable-background:new    ;}
	.st6{opacity:0.4;fill:url(#SVGID_00000057146914108756160200000014450076643487085472_);enable-background:new    ;}
	.st7{opacity:0.4;fill:url(#SVGID_00000073693430186773272580000014768413082018325150_);enable-background:new    ;}
	.st8{opacity:0.4;fill:url(#SVGID_00000070082999222072687810000004903416230000105898_);enable-background:new    ;}
</style>
<g>
	<polygon class="st0" points="63.63,67.65 13.63,0.27 0.33,0.27 0.33,85.57 13.63,85.57 13.63,25.83 60.23,85.57 76.93,85.57 
		76.93,0.27 63.63,0.27 	"/>
	<path class="st0" d="M180.03,72.47v-20.1h49.8v-11.3h-49.8v-27.5h59.9V0.27h-59.9h-13.3v13.3v27.5h-6.6V0.27h-13.3v40.8h-16
		l8.4,11.3h7.6v15.25L96.93,0.27h-0.1h-13.3v8.5v76.8h13.3v-33.2h20.76l25.94,33.2h3.3h13.3v-33.2h6.6v33.2h0.1v0.2h73.2v-13.3
		H180.03z M96.83,41.07V25.8l11.93,15.28H96.83z"/>
	<path class="st0" d="M4.13,92.17l-3.1,8h1.9l0.5-1.4h3.4l0.5,1.4h2l-3.1-8H4.13z M3.83,97.27l1.2-3.4l1.3,3.4H3.83z"/>
	<path class="st0" d="M51.33,97.27h2.1v1c-0.3,0.3-1,0.6-1.7,0.6c-1.4,0-2.5-1.1-2.5-2.6s1-2.6,2.5-2.6c0.8,0,1.5,0.4,1.9,1l1.4-0.8
		c-0.6-1-1.6-1.8-3.3-1.8c-2.5,0-4.4,1.6-4.4,4.1s1.9,4.1,4.5,4.2c1.4,0,2.6-0.6,3.4-1.5v-3.1h-3.9V97.27z"/>
	<polygon class="st0" points="94.53,100.17 100.33,100.17 100.33,98.67 96.23,98.67 96.23,96.87 100.23,96.87 100.23,95.37 
		96.23,95.37 96.23,93.67 100.33,93.67 100.33,92.17 94.53,92.17 	"/>
	<polygon class="st0" points="145.23,97.17 141.53,92.17 139.73,92.17 139.73,100.17 141.43,100.17 141.43,94.97 145.33,100.17 
		146.93,100.17 146.93,92.17 145.23,92.17 	"/>
	<path class="st0" d="M190.73,93.57c0.8,0,1.6,0.6,1.9,1.2l1.5-0.7c-0.5-1.1-1.5-2-3.3-2c-2.5,0-4.4,1.6-4.4,4.1s1.9,4.1,4.4,4.1
		c1.7,0,2.7-1,3.3-2l-1.5-0.7c-0.4,0.7-1.1,1.2-1.9,1.2c-1.4,0-2.5-1.1-2.5-2.6S189.23,93.57,190.73,93.57z"/>
	<polygon class="st0" points="236.03,95.37 234.03,92.17 232.13,92.17 235.23,96.87 235.23,100.17 236.83,100.17 236.83,96.87 
		239.93,92.17 238.03,92.17 	"/>
</g>
<linearGradient id="SVGID_1_" gradientUnits="userSpaceOnUse" x1="96.8984" y1="829.0424" x2="106.8859" y2="829.0424" gradientTransform="matrix(1 0 0 1 0 -782.2677)">
	<stop  offset="0" style="stop-color:#1D1D1B"/>
	<stop  offset="1" style="stop-color:#1D1D1B;stop-opacity:0"/>
</linearGradient>
<rect x="96.93" y="41.07" class="st1" width="10" height="11.4"/>
<linearGradient id="SVGID_00000024696931823836090300000005627851655625670549_" gradientUnits="userSpaceOnUse" x1="130.8472" y1="828.9924" x2="142.2249" y2="828.9924" gradientTransform="matrix(1 0 0 1 0 -782.2677)">
	<stop  offset="0" style="stop-color:#1D1D1B"/>
	<stop  offset="1" style="stop-color:#1D1D1B;stop-opacity:0"/>
</linearGradient>
<polygon style="opacity:0.4;fill:url(#SVGID_00000024696931823836090300000005627851655625670549_);enable-background:new    ;" points="
	139.23,52.37 142.23,52.37 142.23,41.07 130.83,41.07 "/>
<linearGradient id="SVGID_00000086668482613151680390000006153541516271010716_" gradientUnits="userSpaceOnUse" x1="514.4606" y1="836.2967" x2="524.6314" y2="836.2967" gradientTransform="matrix(0 -1 1 0 -682.8149 555.4972)">
	<stop  offset="0" style="stop-color:#1D1D1B"/>
	<stop  offset="1" style="stop-color:#1D1D1B;stop-opacity:0"/>
</linearGradient>
<polygon style="opacity:0.4;fill:url(#SVGID_00000086668482613151680390000006153541516271010716_);enable-background:new    ;" points="
	160.13,41.07 160.13,30.87 146.83,30.87 146.83,41.07 "/>
<linearGradient id="SVGID_00000177477208945775345340000018310070411392421011_" gradientUnits="userSpaceOnUse" x1="387.6038" y1="835.4155" x2="408.6038" y2="835.4155" gradientTransform="matrix(0 -1 1 0 -765.1337 473.1785)">
	<stop  offset="0" style="stop-color:#1D1D1B"/>
	<stop  offset="1" style="stop-color:#1D1D1B;stop-opacity:0"/>
</linearGradient>
<polygon style="opacity:0.4;fill:url(#SVGID_00000177477208945775345340000018310070411392421011_);enable-background:new    ;" points="
	76.93,85.57 76.93,64.57 63.63,64.57 63.63,67.57 "/>
<linearGradient id="SVGID_00000031916402546704630400000005771628482459708074_" gradientUnits="userSpaceOnUse" x1="-73.3722" y1="971.8639" x2="-53.6437" y2="971.8639" gradientTransform="matrix(0.7071 0.7071 -0.7071 0.7071 746.2682 -628.5988)">
	<stop  offset="0" style="stop-color:#1D1D1B"/>
	<stop  offset="1" style="stop-color:#1D1D1B;stop-opacity:0"/>
</linearGradient>
<polygon style="opacity:0.4;fill:url(#SVGID_00000031916402546704630400000005771628482459708074_);enable-background:new    ;" points="
	13.63,25.87 14.63,27.07 25.53,16.27 13.63,0.27 "/>
<linearGradient id="SVGID_00000164506705928794211730000014164437106135782326_" gradientUnits="userSpaceOnUse" x1="514.4606" y1="856.2467" x2="524.6314" y2="856.2467" gradientTransform="matrix(0 -1 1 0 -682.8149 555.4972)">
	<stop  offset="0" style="stop-color:#1D1D1B"/>
	<stop  offset="1" style="stop-color:#1D1D1B;stop-opacity:0"/>
</linearGradient>
<polygon style="opacity:0.4;fill:url(#SVGID_00000164506705928794211730000014164437106135782326_);enable-background:new    ;" points="
	180.13,41.07 180.13,30.87 166.73,30.87 166.73,41.07 "/>
<linearGradient id="SVGID_00000103959801531906472730000017307857492635312052_" gradientUnits="userSpaceOnUse" x1="123.4228" y1="1197.6248" x2="133.5936" y2="1197.6248" gradientTransform="matrix(0 1 -1 0 1371.0566 -71.0083)">
	<stop  offset="0" style="stop-color:#1D1D1B"/>
	<stop  offset="1" style="stop-color:#1D1D1B;stop-opacity:0"/>
</linearGradient>
<polygon style="opacity:0.4;fill:url(#SVGID_00000103959801531906472730000017307857492635312052_);enable-background:new    ;" points="
	166.73,52.37 166.73,62.57 180.13,62.57 180.13,52.37 "/>
<linearGradient id="SVGID_00000008133073023135795560000017839735654980550561_" gradientUnits="userSpaceOnUse" x1="123.4228" y1="1217.5748" x2="133.5936" y2="1217.5748" gradientTransform="matrix(0 1 -1 0 1371.0566 -71.0083)">
	<stop  offset="0" style="stop-color:#1D1D1B"/>
	<stop  offset="1" style="stop-color:#1D1D1B;stop-opacity:0"/>
</linearGradient>
<polygon style="opacity:0.4;fill:url(#SVGID_00000008133073023135795560000017839735654980550561_);enable-background:new    ;" points="
	146.83,52.37 146.83,62.57 160.13,62.57 160.13,52.37 "/>
</svg>
