<?xml version="1.0" encoding="utf-8"?>
<!-- Generator: Adobe Illustrator 26.0.1, SVG Export Plug-In . SVG Version: 6.00 Build 0)  -->
<svg version="1.1" id="Camada_1" xmlns="http://www.w3.org/2000/svg" xmlns:xlink="http://www.w3.org/1999/xlink" x="0px" y="0px"
	 viewBox="0 0 500 500" style="enable-background:new 0 0 500 500;" xml:space="preserve">
<style type="text/css">
	.st0{fill:#FFFFFF;}
</style>
<path class="st0" d="M419.25,285.88c-0.16-1.82-0.34-3.63-0.54-5.45c-4.23-39.13-15.62-76.1-32.81-109.62
	c-1.23-2.4-2.49-4.77-3.79-7.13c-3.99-7.35-8.27-14.52-12.82-21.49c-21.94-10.55-45.49-18.29-70.21-22.68l-8.47,18.2l-0.18,0.38
	c-2.47-0.36-4.93-0.69-7.42-0.96c-8.25-0.99-16.6-1.57-25.08-1.79c-2.33-0.07-4.71-0.09-7.06-0.09c-2.35,0-4.73,0.02-7.06,0.09
	c-8.47,0.22-16.83,0.81-25.08,1.79c-2.49,0.27-4.95,0.6-7.42,0.96l-0.18-0.38l-8.47-18.2c-24.69,4.39-48.27,12.12-70.18,22.68
	c-4.55,6.97-8.83,14.14-12.82,21.49c-1.3,2.35-2.55,4.73-3.79,7.13c-17.19,33.52-28.57,70.52-32.81,109.65
	c-0.2,1.82-0.38,3.63-0.54,5.45c-0.87,9.55-1.32,19.23-1.32,29c0,5.89,0.16,11.72,0.47,17.52c11.27,9.1,23.3,17.32,35.99,24.52
	c15.87,9.03,32.76,16.49,50.44,22.16l22.83-34.24c-11.94-2.98-23.55-6.81-34.73-11.47c1.79-1.26,3.56-2.55,5.31-3.85
	c10.6,4.15,21.58,7.55,32.85,10.17c18.15,4.26,37.06,6.5,56.49,6.5c19.45,0,38.36-2.24,56.51-6.5c11.27-2.64,22.25-6.05,32.85-10.17
	c1.75,1.3,3.5,2.58,5.29,3.85c-11.18,4.66-22.77,8.49-34.71,11.47l22.83,34.24c17.68-5.67,34.55-13.13,50.42-22.16
	c12.68-7.19,24.72-15.42,36.01-24.52c0.31-5.8,0.47-11.63,0.47-17.52C420.57,305.13,420.12,295.44,419.25,285.88z M194.66,296.97
	c-16.82,0-30.45-15.8-30.45-35.29s13.63-35.29,30.45-35.29c16.82,0,30.45,15.8,30.45,35.29S211.47,296.97,194.66,296.97z
	 M307.15,296.97c-16.82,0-30.45-15.8-30.45-35.29s13.63-35.29,30.45-35.29c16.82,0,30.45,15.8,30.45,35.29
	S323.97,296.97,307.15,296.97z"/>
</svg>
