<?xml version="1.0" encoding="utf-8"?>
<!-- Generator: Adobe Illustrator 26.0.1, SVG Export Plug-In . SVG Version: 6.00 Build 0)  -->
<svg version="1.1" id="Camada_1" xmlns="http://www.w3.org/2000/svg" xmlns:xlink="http://www.w3.org/1999/xlink" x="0px" y="0px"
	 viewBox="0 0 500 500" style="enable-background:new 0 0 500 500;" xml:space="preserve">
<g>
	<path d="M268.53,334.02c0,19.8-0.14,39.59,0.09,59.39c0.06,5.35-1.21,7.68-7.16,8.21c-14.57,1.31-29.01,1.52-43.61,0.15
		c-6.71-0.63-8.69-2.66-8.64-9.36c0.3-38.77-0.04-77.54,0.32-116.3c0.07-7.19-1.69-9.64-9.1-9.19c-10.96,0.66-21.99,0.04-32.98,0.27
		c-4.66,0.1-6.95-0.88-6.81-6.31c0.36-14.29,0.26-28.59,0.04-42.89c-0.07-4.69,1.58-6.16,6.21-6.05c11.54,0.28,23.11-0.2,34.64,0.24
		c5.98,0.23,8.24-1.26,7.99-7.68c-0.51-12.9-0.25-25.84-0.12-38.76c0.43-41.13,25.78-67.58,66.83-69.63
		c13.76-0.69,27.45,0.52,41.1,2.33c4.62,0.61,6.56,2.44,6.42,7.4c-0.34,11.26-0.3,22.55,0,33.81c0.13,5.11-1.75,6.73-6.72,6.58
		c-7.41-0.22-14.87-0.26-22.24,0.44c-15.71,1.48-24.83,10.3-25.92,25.82c-0.81,11.49-0.13,23.08-0.37,34.63
		c-0.11,5.02,2.93,4.99,6.47,4.97c13.2-0.06,26.4,0.16,39.59-0.13c5.5-0.12,7.2,1.4,6.17,7.1c-2.47,13.79-4.49,27.67-6.37,41.55
		c-0.63,4.65-2.31,6.73-7.31,6.56c-9.34-0.31-18.69-0.05-28.04-0.05c-10.41,0.01-10.44,0-10.46,10.81
		C268.52,296.63,268.53,315.32,268.53,334.02z"/>
</g>
</svg>
