<?xml version="1.0" encoding="utf-8"?>
<!-- Generator: Adobe Illustrator 26.0.1, SVG Export Plug-In . SVG Version: 6.00 Build 0)  -->
<svg version="1.1" id="Camada_1" xmlns="http://www.w3.org/2000/svg" xmlns:xlink="http://www.w3.org/1999/xlink" x="0px" y="0px"
	 viewBox="0 0 500 500" style="enable-background:new 0 0 500 500;" xml:space="preserve">
<g>
	<path d="M251.32,198.32c-28.73,0.03-51.32,22.57-51.25,51.12c0.07,27.26,23.06,49.95,50.58,49.91
		c27.84-0.04,50.49-22.96,50.46-51.06C301.07,221.66,277.8,198.3,251.32,198.32z"/>
	<path d="M403.33,190.73c-0.61-12.36-1.62-24.71-5.52-36.61c-6.96-21.3-20.06-37.34-40.21-47.48c-15.6-7.85-32.45-10.02-49.52-10.46
		c-18.35-0.47-36.72-0.11-55.08-0.11c0-0.05,0-0.11,0-0.16c-13.14,0-26.27,0.03-39.41-0.01c-13.14-0.04-26.27,0.25-39.31,1.88
		c-37.12,4.62-64.19,26.65-73.01,63.29c-4.06,16.87-3.86,34.11-4.07,51.2c-0.41,33.57-0.93,67.16,0.68,100.72
		c0.81,16.77,4.1,32.93,12.5,47.61c12.39,21.66,31.91,33.33,55.82,38.13c18.82,3.78,38.03,2.81,57.07,3.45
		c23.26,0.78,46.58,0.56,69.85,0.07c12.64-0.27,25.34-0.43,37.91-2.45c25.27-4.07,45.24-16.31,58.88-38.15
		c9.71-15.55,12.55-33.11,13.34-50.98c1.06-23.85,0.44-47.75,0.69-71.62C404.12,222.97,404.13,206.82,403.33,190.73z M251.63,328.06
		c-45.86,0.65-79.72-35.78-80.15-77.92c-0.46-45.11,34.51-79.9,79.43-79.97c41.64-0.38,78.68,32.58,78.67,78.94
		C329.58,292.58,295.67,327.44,251.63,328.06z M331.09,186.16c-9.91-0.22-18.05-8.69-17.91-18.65c0.15-10.79,8.49-18.92,19.25-18.76
		c10.6,0.16,18.34,8.27,18.26,19.12C350.6,178.39,342.01,186.41,331.09,186.16z"/>
</g>
</svg>
