<?xml version="1.0" encoding="utf-8"?>
<!-- Generator: Adobe Illustrator 26.0.1, SVG Export Plug-In . SVG Version: 6.00 Build 0)  -->
<svg version="1.1" id="Camada_1" xmlns="http://www.w3.org/2000/svg" xmlns:xlink="http://www.w3.org/1999/xlink" x="0px" y="0px"
	 viewBox="0 0 500 500" style="enable-background:new 0 0 500 500;" xml:space="preserve">
<path d="M199.99,179.74l-18.77-18.77c-13.31-13.31-34.89-13.31-48.2,0l-13.72,13.72c-13.31,13.31-13.31,34.89,0,48.2l82.44,82.44
	c7.04,7.04,16.38,10.35,25.6,9.95c5.47-0.24,10.9-1.79,15.76-4.65c2.44-1.44,4.75-3.2,6.84-5.3l13.72-13.72
	c1.97-1.97,3.65-4.13,5.04-6.42c2.91-4.78,4.53-10.13,4.87-15.54c0.59-9.42-2.71-19.04-9.91-26.24l-18.55-18.55
	c0.96-2.54,2.45-4.92,4.49-6.96l13.72-13.72c2.17-2.17,4.74-3.73,7.47-4.67l24.17,24.17c20.31,20.31,22.75,51.72,7.32,74.69
	c-2.11,3.14-4.55,6.13-7.32,8.9l-29.36,29.36c-2.9,2.9-6.02,5.43-9.31,7.6c-22.94,15.13-54.09,12.59-74.28-7.6l-94-94
	c-23.08-23.08-23.08-60.51,0-83.59l29.36-29.36c23.08-23.08,60.51-23.08,83.59,0l24.55,24.55L199.99,179.74z"/>
<path d="M303.97,319.03l18.77,18.77c13.31,13.31,34.89,13.31,48.2,0l13.72-13.72c13.31-13.31,13.31-34.89,0-48.2l-82.44-82.44
	c-7.04-7.04-16.38-10.35-25.6-9.95c-5.47,0.24-10.9,1.79-15.76,4.65c-2.44,1.44-4.75,3.2-6.84,5.3l-13.72,13.72
	c-1.97,1.97-3.65,4.13-5.04,6.42c-2.91,4.78-4.53,10.13-4.87,15.54c-0.59,9.42,2.71,19.04,9.91,26.24l18.55,18.55
	c-0.96,2.54-2.45,4.92-4.49,6.96l-13.72,13.72c-2.17,2.17-4.74,3.73-7.47,4.67L209,275.09c-20.31-20.31-22.75-51.71-7.32-74.69
	c2.11-3.14,4.55-6.13,7.32-8.9l29.36-29.36c2.9-2.9,6.02-5.43,9.31-7.6c22.94-15.13,54.09-12.59,74.28,7.6l94,94
	c23.08,23.08,23.08,60.51,0,83.59l-29.36,29.36c-23.08,23.08-60.51,23.08-83.59,0l-24.55-24.55L303.97,319.03z"/>
</svg>
