<?xml version="1.0" encoding="utf-8"?>
<!-- Generator: Adobe Illustrator 26.0.1, SVG Export Plug-In . SVG Version: 6.00 Build 0)  -->
<svg version="1.1" id="Camada_1" xmlns="http://www.w3.org/2000/svg" xmlns:xlink="http://www.w3.org/1999/xlink" x="0px" y="0px"
	 viewBox="0 0 500 500" style="enable-background:new 0 0 500 500;" xml:space="preserve">
<style type="text/css">
	.st0{fill-rule:evenodd;clip-rule:evenodd;}
</style>
<path class="st0" d="M96.78,122.5c0-6.73,2.67-13.19,7.43-17.95c4.76-4.76,11.21-7.43,17.95-7.43h252.99
	c3.34-0.01,6.64,0.65,9.72,1.92c3.08,1.27,5.89,3.14,8.24,5.5c2.36,2.36,4.23,5.16,5.51,8.24c1.28,3.08,1.93,6.39,1.93,9.72v252.99
	c0,3.34-0.65,6.64-1.92,9.72c-1.27,3.08-3.14,5.89-5.5,8.24c-2.36,2.36-5.16,4.23-8.24,5.51c-3.08,1.27-6.39,1.93-9.72,1.93h-253
	c-3.33,0-6.64-0.66-9.72-1.93c-3.08-1.28-5.88-3.15-8.24-5.51c-2.36-2.36-4.23-5.16-5.5-8.24c-1.27-3.08-1.93-6.38-1.93-9.72V122.5z
	 M217.02,212.94h41.13v20.66c5.94-11.87,21.13-22.56,43.95-22.56c43.76,0,54.13,23.65,54.13,67.05v80.39h-44.28v-70.5
	c0-24.72-5.94-38.66-21.02-38.66c-20.92,0-29.62,15.04-29.62,38.66v70.5h-44.3V212.94z M141.08,356.59h44.3V211.04h-44.3v145.54
	V356.59z M191.71,163.56c0.08,3.79-0.59,7.56-1.99,11.09c-1.39,3.53-3.48,6.74-6.13,9.45c-2.65,2.71-5.82,4.87-9.32,6.34
	c-3.5,1.47-7.25,2.23-11.05,2.23c-3.79,0-7.55-0.76-11.05-2.23c-3.5-1.47-6.66-3.63-9.32-6.34c-2.65-2.71-4.74-5.93-6.13-9.45
	c-1.39-3.53-2.07-7.3-1.99-11.09c0.16-7.44,3.24-14.53,8.56-19.74c5.32-5.21,12.47-8.12,19.92-8.12c7.45,0,14.6,2.92,19.92,8.12
	C188.47,149.04,191.55,156.12,191.71,163.56L191.71,163.56z"/>
</svg>
