<?xml version="1.0" encoding="utf-8"?>
<!-- Generator: Adobe Illustrator 26.0.1, SVG Export Plug-In . SVG Version: 6.00 Build 0)  -->
<svg version="1.1" id="Camada_1" xmlns="http://www.w3.org/2000/svg" xmlns:xlink="http://www.w3.org/1999/xlink" x="0px" y="0px"
	 viewBox="0 0 500 500" style="enable-background:new 0 0 500 500;" xml:space="preserve">
<g>
	<path d="M185.77,170.33l55.87,55.87c3.98,3.98,10.43,3.98,14.42,0l55.87-55.87c3.7-3.7,8.71-5.77,13.94-5.77H346l-60.66-60.66
		c-20.16-20.16-52.84-20.16-73,0l-60.65,60.66h20.14C177.06,164.56,182.07,166.64,185.77,170.33z"/>
	<path d="M311.92,328.37l-55.87-55.87c-3.98-3.98-10.43-3.98-14.42,0l-55.87,55.87c-3.7,3.7-8.71,5.77-13.93,5.77h-20.14
		l60.65,60.66c20.16,20.16,52.84,20.16,73,0L346,334.15h-20.14C320.63,334.15,315.61,332.07,311.92,328.37z"/>
	<path d="M394.29,212.86L358.44,177h-28.72c-4.41,0-8.63,1.75-11.75,4.86l-55.89,55.82c-7.31,7.31-19.17,7.31-26.48,0l-55.89-55.82
		c-3.12-3.11-7.34-4.86-11.75-4.86h-28.72l-35.85,35.85c-20.16,20.16-20.16,52.84,0,72.99l35.85,35.85h28.72
		c4.41,0,8.63-1.75,11.75-4.86l55.89-55.82c7.31-7.31,19.17-7.31,26.48,0l55.89,55.82c3.12,3.11,7.34,4.86,11.75,4.86h28.72
		l35.85-35.85C414.45,265.69,414.45,233.01,394.29,212.86z"/>
</g>
</svg>
