<?xml version="1.0" encoding="utf-8"?>
<!-- Generator: Adobe Illustrator 26.0.1, SVG Export Plug-In . SVG Version: 6.00 Build 0)  -->
<svg version="1.1" id="Camada_1" xmlns="http://www.w3.org/2000/svg" xmlns:xlink="http://www.w3.org/1999/xlink" x="0px" y="0px"
	 viewBox="0 0 500 500" style="enable-background:new 0 0 500 500;" xml:space="preserve">
<g>
	<path d="M399.7,160.2v61.4c-1.5,0-3.1,0.1-4.5,0.1c-30.6,0-58.4-12.9-78-33.4v123.3c0,42.2-24.1,78.7-59.4,96.3
		c-14.5,7.3-30.8,11.4-48.1,11.4c-59.4,0-107.7-48.3-107.7-107.7c0-59.4,48.3-107.6,107.7-107.6c5,0,9.9,0.3,14.7,0.9v61.5
		c-4.6-1.5-9.5-2.4-14.7-2.4c-26.3,0-47.5,21.4-47.5,47.5c0,26.3,21.2,47.5,47.5,47.5c22.7,0,41.8-15.9,46.4-37.3V79.3h61.1v1.9
		c0,43.6,35.4,79,79.2,79H399.7z"/>
</g>
</svg>
