<?xml version="1.0" encoding="utf-8"?>
<!-- Generator: Adobe Illustrator 26.0.1, SVG Export Plug-In . SVG Version: 6.00 Build 0)  -->
<svg version="1.1" id="Camada_1" xmlns="http://www.w3.org/2000/svg" xmlns:xlink="http://www.w3.org/1999/xlink" x="0px" y="0px"
	 viewBox="0 0 500 500" style="enable-background:new 0 0 500 500;" xml:space="preserve">
<g>
	<path d="M386.14,136.11c-2.9,10.41-9.69,18.11-17.57,25.03c-1.84,1.62-3.86,3.05-6.57,5.19c12.07-1.14,22.45-4.72,33.69-8.93
		c-7.6,11.36-16.41,20.32-26.26,28.28c-2.43,1.96-3.58,3.8-3.51,7.08c0.46,23.55-3.74,46.33-12.67,68.09
		c-19.43,47.36-52.32,81.23-100.79,99.01c-14.35,5.26-29.36,7.61-44.53,9.48c-11.05,1.36-22.12,1.1-32.83-0.18
		c-25.52-3.06-49.9-10.49-71.81-24.61c-0.11-0.07-0.12-0.28-0.58-1.42c31.69,2.06,60.23-5.72,86.25-25.45
		c-5.32-1.01-9.72-1.54-13.95-2.7c-19.15-5.22-32.47-17.24-40.54-35.27c-1.36-3.03-1.05-4.4,2.74-3.79
		c6.87,1.12,13.61,0.03,20.67-1.47c-1.68-1.66-3.52-2.08-5.28-2.75c-23.69-9.04-37.38-26.15-40.99-51.24
		c-0.88-6.11-0.27-6.43,5.39-4.23c3.42,1.33,6.94,2.49,10.5,3.34c3.06,0.74,6.24,0.94,10.8,1.57c-3.05-2.83-5.14-4.75-7.21-6.69
		c-19.2-17.96-24.64-46.37-13.61-70.04c1.82-3.9,2.98-4.19,5.93-0.81c24,27.52,53.7,45.88,89.16,54.85c9.11,2.3,18.4,3.37,27.7,4.53
		c4.41,0.55,5.16-0.81,4.55-5.07c-4.43-31.06,15.04-60.28,45.32-67.6c21.18-5.12,40.14-0.1,56.29,14.63c2.3,2.1,4.24,2.5,7.13,1.83
		c11-2.52,21.24-7,31.41-11.72C385.33,135.4,385.73,135.76,386.14,136.11z"/>
</g>
</svg>
